<svg width="1024" height="1024" viewBox="0 0 1024 1024" fill="none" xmlns="http://www.w3.org/2000/svg">
  <!-- Фон -->
  <rect width="1024" height="1024" rx="200" fill="url(#gradient)"/>
  
  <!-- Котик -->
  <g transform="translate(200, 200)">
    <!-- Тело котика -->
    <ellipse cx="312" cy="400" rx="180" ry="200" fill="#4A90E2"/>
    
    <!-- Голова -->
    <circle cx="312" cy="280" r="120" fill="#4A90E2"/>
    
    <!-- Уши -->
    <path d="M 220 200 Q 200 180 220 160 L 240 180 Q 220 200 220 200 Z" fill="#357ABD"/>
    <path d="M 404 200 Q 424 180 404 160 L 384 180 Q 404 200 404 200 Z" fill="#357ABD"/>
    
    <!-- Глаза -->
    <circle cx="280" cy="260" r="25" fill="white"/>
    <circle cx="344" cy="260" r="25" fill="white"/>
    <circle cx="280" cy="260" r="15" fill="#2C3E50"/>
    <circle cx="344" cy="260" r="15" fill="#2C3E50"/>
    <circle cx="275" cy="255" r="8" fill="white"/>
    <circle cx="339" cy="255" r="8" fill="white"/>
    
    <!-- Нос -->
    <path d="M 312 290 L 300 300 L 324 300 Z" fill="#E74C3C"/>
    
    <!-- Рот -->
    <path d="M 300 320 Q 312 340 324 320" stroke="#2C3E50" stroke-width="3" fill="none"/>
    
    <!-- Усы -->
    <line x1="200" y1="290" x2="240" y2="285" stroke="#2C3E50" stroke-width="2"/>
    <line x1="200" y1="300" x2="240" y2="300" stroke="#2C3E50" stroke-width="2"/>
    <line x1="200" y1="310" x2="240" y2="315" stroke="#2C3E50" stroke-width="2"/>
    <line x1="424" y1="290" x2="384" y2="285" stroke="#2C3E50" stroke-width="2"/>
    <line x1="424" y1="300" x2="384" y2="300" stroke="#2C3E50" stroke-width="2"/>
    <line x1="424" y1="310" x2="384" y2="315" stroke="#2C3E50" stroke-width="2"/>
    
    <!-- Лапки -->
    <ellipse cx="250" cy="580" rx="30" ry="40" fill="#357ABD"/>
    <ellipse cx="374" cy="580" rx="30" ry="40" fill="#357ABD"/>
    
    <!-- Хвост -->
    <path d="M 450 350 Q 500 300 520 350 Q 540 400 500 450 Q 480 480 450 450 Q 470 420 450 350 Z" fill="#357ABD"/>
    
    <!-- Декоративные элементы -->
    <circle cx="150" cy="150" r="20" fill="#5DADE2" opacity="0.6"/>
    <circle cx="474" cy="150" r="15" fill="#5DADE2" opacity="0.6"/>
    <circle cx="150" cy="474" r="18" fill="#5DADE2" opacity="0.6"/>
    <circle cx="474" cy="474" r="22" fill="#5DADE2" opacity="0.6"/>
  </g>
  
  <!-- Градиент для фона -->
  <defs>
    <linearGradient id="gradient" x1="0%" y1="0%" x2="100%" y2="100%">
      <stop offset="0%" style="stop-color:#3498DB;stop-opacity:1" />
      <stop offset="50%" style="stop-color:#2980B9;stop-opacity:1" />
      <stop offset="100%" style="stop-color:#1F4E79;stop-opacity:1" />
    </linearGradient>
  </defs>
</svg>
